<?xml version="1.0" encoding="UTF-8" standalone="no"?>
<!-- Created with Inkscape (http://www.inkscape.org/) -->
<svg xmlns:rdf="http://www.w3.org/1999/02/22-rdf-syntax-ns#" xmlns="http://www.w3.org/2000/svg" xml:space="preserve" version="1.1" xmlns:cc="http://creativecommons.org/ns#" xmlns:dc="http://purl.org/dc/elements/1.1/" viewBox="0 0 543.85 329.98"><metadata><rdf:RDF><cc:Work rdf:about=""><dc:format>image/svg+xml</dc:format><dc:type rdf:resource="http://purl.org/dc/dcmitype/StillImage"/><dc:title/></cc:Work></rdf:RDF></metadata><defs/><g transform="matrix(1.25,0,0,-1.25,-108.84319,951.71094)"><text font-size="7.1560998px" fill-rule="nonzero" transform="scale(1,-1)" font-variant="normal" y="-717.19373" x="502.10739" font-family="Times New Roman" fill="#231f20"><tspan style="writing-mode:lr-tb;" y="-717.19373" x="502.10739 506.08762 509.66711 511.65793 515.23743">Spike</tspan><tspan style="writing-mode:lr-tb;" y="-709.49591" x="502.10739 506.4812 508.47205 514.04089">Time</tspan></text>
<text y="-709.49573" x="517.21838" transform="scale(1,-1)"><tspan style="writing-mode:lr-tb;" fill-rule="nonzero" font-size="7.1560998px" font-variant="normal" y="-709.49573" x="517.21838" font-family="Times New Roman" fill="#231f20">s</tspan></text>
<path stroke-linejoin="miter" d="m284.17,651.17,35.987,0,0-17.961-35.987,0,0,17.961zm14.951-16.087,0,14.096m-10.679-11.873,28.41,0m-27.001-1.367,0.847,0,0.766,0.034,0.846,0.034,0.807,0.034,0.724,0.068,0.606,0.035,0.563,0.103,0.525,0.069,0.443,0.101,0.443,0.139,0.443,0.136,0.524,0.171,0.484,0.171,0.523,0.239,0.484,0.24,0.523,0.274,0.484,0.307,0.444,0.308,0.443,0.308,0.443,0.342,0.363,0.342,0.403,0.343,0.806,0.752,0.403,0.445,0.444,0.41,0.443,0.446,0.443,0.478,0.444,0.411,0.402,0.444,0.403,0.377,0.403,0.376,0.404,0.342,0.361,0.343,0.444,0.341,0.443,0.308,0.444,0.308,0.483,0.309,0.524,0.272,0.484,0.24,0.524,0.241,0.483,0.171,0.524,0.169,0.444,0.138,0.443,0.137,0.443,0.102,0.523,0.069,0.564,0.103,0.606,0.034,0.725,0.068,0.806,0.035,0.845,0.033,0.767,0.035,0.846,0" stroke="#231f20" stroke-linecap="butt" stroke-miterlimit="10" stroke-dasharray="none" stroke-width="0.447" fill="none"/><text y="-643.28967" x="288.4404" transform="scale(1,-1)"><tspan style="writing-mode:lr-tb;" fill-rule="nonzero" font-size="6.26160002px" font-variant="normal" y="-643.28967" x="288.4404 292.96252" font-family="Times New Roman" fill="#231f20">NL</tspan></text>
<path stroke-linejoin="miter" d="m274.84,657.92,152.25,0,0-40.104-152.25,0,0,40.104z" stroke-dashoffset="0" stroke="#231f20" stroke-linecap="butt" stroke-miterlimit="10" stroke-dasharray="1.4348, 1.4348" stroke-width="0.447" fill="none"/><text y="-621.62268" x="340.1524" transform="scale(1,-1)"><tspan style="writing-mode:lr-tb;" fill-rule="nonzero" font-size="8.94509983px" font-variant="normal" y="-621.62268" x="340.1524 346.61166 353.07092" font-family="Times New Roman" fill="#231f20">OHC</tspan></text>
<path stroke-linejoin="miter" d="m331.14,651.17,36.269,0,0-17.961-36.269,0,0,17.961zm6.045-2.565,18.134,0,6.046-12.83" stroke="#231f20" stroke-linecap="butt" stroke-miterlimit="10" stroke-dasharray="none" stroke-width="0.447" fill="none"/><text y="-638.33569" x="337.18741" transform="scale(1,-1)"><tspan style="writing-mode:lr-tb;" fill-rule="nonzero" font-size="6.26160002px" font-variant="normal" y="-638.33569" x="337.18741 341.0145" font-family="Times New Roman" fill="#231f20">LP</tspan></text>
<path stroke-linejoin="miter" d="m97.092,705.73,20.528,0" stroke="#231f20" stroke-linecap="butt" stroke-miterlimit="10" stroke-dasharray="none" stroke-width="0.447" fill="none"/><path d="m113.27,706.94,4.105-1.209-4.105-1.209,0,2.418" fill-rule="evenodd" fill="#000"/><path stroke-linejoin="miter" d="m113.27,706.94,4.105-1.209-4.105-1.209,0,2.418z" stroke="#231f20" stroke-linecap="butt" stroke-miterlimit="10" stroke-dasharray="none" stroke-width="0.447" fill="none"/><text font-size="7.1560998px" fill-rule="nonzero" transform="scale(1,-1)" font-variant="normal" y="-710.81671" x="119.7543" font-family="Times New Roman" fill="#231f20"><tspan style="writing-mode:lr-tb;" y="-710.81671" x="119.7543 126.1175 128.10834 131.68781 135.26729 137.25812 140.43686 142.82127 146.00002 149.17876">Middle-ear</tspan><tspan style="writing-mode:lr-tb;" y="-703.11743" x="119.7543 123.73452 125.72535 127.71618 129.707 132.88574">Filter</tspan></text>
<path stroke-linejoin="miter" d="m118.08,718.52,53.185,0,0-25.66-53.185,0,0,25.66z" stroke="#231f20" stroke-linecap="butt" stroke-miterlimit="10" stroke-dasharray="none" stroke-width="0.41999999" fill="none"/><path stroke-linejoin="round" d="m125.01,696.37,0.224,0.2,0.225,0.075,0.224,0.158,0.224,0.091,0.224,0.182,0.225,0.075,0.224,0.151,0.224,0.107,0.224,0.092,0.224,0.124,0.224,0.166,0.225,0.1,0.224,0.123,0.224,0.142,0.224,0.117,0.225,0.091,0.224,0.133,0.224,0.108,0.216,0.124,0.224,0.117,0.224,0.1,0.224,0.115,0.225,0.108,0.224,0.109,0.224,0.115,0.224,0.117,0.224,0.1,0.224,0.108,0.225,0.107,0.448,0.216,0.224,0.1,0.225,0.099,0.224,0.116,0.224,0.1,0.224,0.1,0.224,0.099,0.224,0.109,0.216,0.099,0.225,0.1,0.223,0.099,0.449,0.2,0.224,0.1,0.224,0.099,0.224,0.1,0.224,0.091,0.225,0.1,0.224,0.099,0.224,0.1,0.225,0.091,0.223,0.1,0.225,0.1,0.224,0.091,0.224,0.1,0.224,0.091,0.224,0.099,0.224,0.1,0.216,0.091,0.225,0.1,0.224,0.092,0.224,0.1,0.224,0.09,0.225,0.1,0.223,0.091,0.225,0.099,0.225,0.093,0.223,0.1,0.225,0.09,0.223,0.1,0.225,0.1,0.224,0.09,0.224,0.1,0.224,0.1,0.225,0.091,0.224,0.101,0.224,0.091,0.224,0.099,0.216,0.1,0.225,0.099,0.223,0.091,0.225,0.1,0.224,0.099,0.449,0.2,0.223,0.092,0.225,0.1,0.224,0.099,0.224,0.1,0.224,0.1,0.225,0.09,0.223,0.1,0.225,0.1,0.224,0.099,0.224,0.092,0.225,0.099,0.223,0.092,0.225,0.1,0.215,0.091,0.225,0.09,0.224,0.093,0.224,0.082,0.225,0.092,0.224,0.083,0.224,0.083,0.224,0.074,0.225,0.075,0.223,0.075,0.225,0.067,0.223,0.066,0.225,0.058,0.225,0.05,0.223,0.049,0.225,0.042,0.224,0.041,0.224,0.026,0.224,0.024,0.225,0.018,0.215,0.007,0.224,0.008,0.225-0.008,0.223-0.007,0.225-0.026,0.224-0.025,0.448-0.066,0.225-0.05,0.224-0.05,0.224-0.058,0.225-0.066,0.223-0.066,0.225-0.076,0.223-0.083,0.449-0.166,0.224-0.099,0.224-0.092,0.225-0.099,0.216-0.108,0.224-0.108,0.224-0.116,0.224-0.117,0.224-0.124,0.224-0.125,0.225-0.132,0.224-0.133,0.224-0.142,0.225-0.158,0.223-0.157,0.225-0.175,0.224-0.182,0.224-0.208,0.224-0.224,0.225-0.257,0.224-0.291,0.224-0.349,0.224-0.431,0.224-0.548,0.216-0.731,0.224-1.021,0.225-1.304,0.224-0.075,0.224,1.976,0.224,1.876,0.224,1.404,0.225,0.964,0.224,0.54,0.224,0.232,0.224,0.033,0.224-0.075,0.224-0.116,0.225-0.133,0.224-0.141,0.224-0.133,0.225-0.125,0.223-0.115,0.225-0.109,0.224-0.108,0.215-0.1,0.449-0.182,0.224-0.092,0.449-0.182,0.223-0.091,0.225-0.092,0.224-0.108,0.224-0.107,0.224-0.125,0.225-0.134,0.224-0.14,0.224-0.166,0.224-0.174,0.224-0.2,0.225-0.207,0.223-0.232,0.225-0.242,0.224-0.265" stroke="#231f20" stroke-linecap="butt" stroke-miterlimit="10" stroke-dasharray="none" stroke-width="0.447" fill="none"/><text y="-710.83771" x="89.027298" transform="scale(1,-1)"><tspan style="writing-mode:lr-tb;" fill-rule="nonzero" font-size="7.1560998px" font-variant="normal" y="-710.83771" x="89.027298" font-family="Times New Roman" fill="#231f20">S</tspan></text>
<text y="-710.83783" x="93.007103" transform="scale(1,-1)"><tspan style="writing-mode:lr-tb;" fill-rule="nonzero" font-size="7.1560998px" font-variant="normal" y="-710.83783" x="93.007103 94.996498 96.985893 102.55334 106.13139 108.12078 111.69883" font-family="Times New Roman" fill="#231f20">timulus</tspan></text>
<path stroke-linejoin="miter" d="m241.64,663.05-18.112,0,0,10.957,18.112,0,0-10.957z" stroke="#231f20" stroke-linecap="butt" stroke-miterlimit="10" stroke-dasharray="none" stroke-width="0.447" fill="none"/><text y="-667.53473" x="227.14841" transform="scale(1,-1)"><tspan style="writing-mode:lr-tb;" fill-rule="nonzero" font-size="5.36709976px" font-style="italic" font-variant="normal" y="-667.53473" x="227.14841" font-family="Times New Roman" fill="#231f20">f</tspan></text>
<text y="-667.53473" x="228.64153" transform="scale(1,-1)"><tspan style="writing-mode:lr-tb;" fill-rule="nonzero" font-size="5.36709976px" font-variant="normal" y="-667.53473" x="228.64153" font-family="Times New Roman" fill="#231f20">(</tspan></text>
<text y="-667.53473" x="230.4294" transform="scale(1,-1)"><tspan style="writing-mode:lr-tb;" fill-rule="nonzero" font-size="6.26160002px" font-variant="normal" y="-667.53473" x="230.4294" font-family="SymbolMT-OV" fill="#231f20">τ</tspan></text>
<text y="-665.74573" x="233.17439" transform="scale(1,-1)"><tspan style="writing-mode:lr-tb;" fill-rule="nonzero" font-size="4.47259998px" font-variant="normal" y="-665.74573" x="233.17439 236.15852" font-family="Times New Roman" fill="#231f20">C1</tspan></text>
<text y="-667.53473" x="238.3934" transform="scale(1,-1)"><tspan style="writing-mode:lr-tb;" fill-rule="nonzero" font-size="5.36709976px" font-variant="normal" y="-667.53473" x="238.3934" font-family="Times New Roman" fill="#231f20">)</tspan></text>
<text y="-688.3797" x="221.60539" transform="scale(1,-1)"><tspan style="writing-mode:lr-tb;" fill-rule="nonzero" font-size="6.26160002px" font-variant="normal" y="-688.3797" x="221.60539" font-family="SymbolMT-OV" fill="#231f20">τ</tspan></text>
<text y="-686.01672" x="224.3344" transform="scale(1,-1)"><tspan style="writing-mode:lr-tb;" fill-rule="nonzero" font-size="4.47259998px" font-variant="normal" y="-686.01672" x="224.3344 227.31851" font-family="Times New Roman" fill="#231f20">C1</tspan></text>
<text y="-658.76569" x="219.3694" transform="scale(1,-1)"><tspan style="writing-mode:lr-tb;" fill-rule="nonzero" font-size="6.26160002px" font-variant="normal" y="-658.76569" x="219.3694" font-family="SymbolMT-OV" fill="#231f20">τ</tspan></text>
<text y="-657.52271" x="222.1004" transform="scale(1,-1)"><tspan style="writing-mode:lr-tb;" fill-rule="nonzero" font-size="5.36709976px" font-variant="normal" y="-657.52271" x="222.1004 224.48447" font-family="Times New Roman" fill="#231f20">cp</tspan></text>
<path stroke-linejoin="miter" d="m378.23,653.36,42.315,0,0-23.095-42.315,0,0,23.095zm2.821-19.535,35.101,0m-16.765,16.969,0-16.969m-18.135,1.573,0.566,0,0.604,0.034,0.725,0.035,0.726,0.033,0.725,0.035,0.645,0.069,0.605,0.069,0.524,0.066,0.443,0.105,0.483,0.135,0.483,0.137,0.443,0.172,0.484,0.204,0.524,0.207,0.524,0.274,0.484,0.306,0.524,0.309,0.484,0.343,0.443,0.34,0.402,0.377,0.403,0.343,0.323,0.409,0.041,0,0.321,0.377,0.646,0.89,0.362,0.512,0.322,0.481,0.363,0.512,0.322,0.479,0.322,0.444,0.363,0.447,0.322,0.376,0.323,0.307,0.322,0.307,0.041,0,0.282,0.207,0.322,0.17,0.363,0.137,0.363,0.136,0.362,0.103,0.403,0.034,0.403,0.035,0.403-0.035,0.404-0.034,0.362-0.103,0.362-0.136,0.363-0.137,0.323-0.17,0.322-0.207,0.322-0.307,0.323-0.307,0.322-0.376,0.364-0.447,0.322-0.444,0.362-0.479,0.323-0.512,0.322-0.481,0.362-0.512,0.646-0.89,0.321-0.377,0.041,0,0.322-0.409,0.404-0.343,0.402-0.377,0.443-0.34,0.484-0.343,0.524-0.309,0.484-0.306,0.524-0.274,0.524-0.207,0.483-0.204,0.444-0.172,0.483-0.137,0.483-0.135,0.443-0.105,0.524-0.066,0.605-0.069,0.645-0.069,0.725-0.035,0.727-0.033,0.723-0.035,0.606-0.034,0.564,0" stroke="#231f20" stroke-linecap="butt" stroke-miterlimit="10" stroke-dasharray="none" stroke-width="0.447" fill="none"/><path stroke-linejoin="miter" d="m381.25,635.33,0.566,0,0.604,0.023,0.725,0.02,0.726,0.023,0.725,0.022,0.645,0.043,0.605,0.044,0.524,0.043,0.443,0.066,0.483,0.086,0.483,0.087,0.443,0.109,0.484,0.129,0.524,0.131,0.524,0.173,0.484,0.196,0.524,0.196,0.484,0.217,0.443,0.217,0.402,0.239,0.403,0.217,0.323,0.261,0.041,0,0.321,0.238,0.323,0.283,0.323,0.282,0.362,0.326,0.322,0.306,0.363,0.324,0.322,0.304,0.322,0.281,0.363,0.283,0.322,0.24,0.323,0.196,0.322,0.194,0.041,0,0.282,0.13,0.322,0.109,0.363,0.087,0.363,0.088,0.362,0.064,0.806,0.044,0.807-0.044,0.362-0.064,0.362-0.088,0.363-0.087,0.323-0.109,0.322-0.13,0.322-0.194,0.323-0.196,0.322-0.24,0.364-0.283,0.322-0.281,0.362-0.304,0.323-0.324,0.322-0.306,0.362-0.326,0.323-0.282,0.323-0.283,0.321-0.238,0.041,0,0.322-0.261,0.404-0.217,0.402-0.239,0.443-0.217,0.484-0.217,0.524-0.196,0.484-0.196,0.524-0.173,0.524-0.131,0.483-0.129,0.444-0.109,0.483-0.087,0.483-0.086,0.443-0.066,0.524-0.043,0.605-0.044,0.645-0.043,0.725-0.022,0.727-0.023,0.723-0.02,0.606-0.023,0.564,0" stroke="#666" stroke-linecap="butt" stroke-miterlimit="10" stroke-dasharray="none" stroke-width="0.447" fill="none"/><text font-size="5.36709976px" fill-rule="nonzero" transform="scale(1,-1)" font-variant="normal" y="-647.83173" x="378.7774" font-family="Times New Roman" fill="#231f20"><tspan style="writing-mode:lr-tb;" y="-647.83173" x="378.7774 382.65353 386.52963">OHC</tspan><tspan style="writing-mode:lr-tb;" y="-642.05188" x="378.7774 381.76257 383.25571 385.63977 387.1329 389.81754">Status</tspan></text>
<text y="-648.41571" x="404.5144" transform="scale(1,-1)"><tspan style="writing-mode:lr-tb;" fill-rule="nonzero" font-size="6.26160002px" font-variant="normal" y="-648.41571" x="404.5144" font-family="Times New Roman" fill="#231f20">C</tspan></text>
<text y="-646.1507" x="408.50229" transform="scale(1,-1)"><tspan style="writing-mode:lr-tb;" fill-rule="nonzero" font-size="5.36709976px" font-variant="normal" y="-646.1507" x="408.50229 412.37842 416.25455" font-family="Times New Roman" fill="#231f20">OHC</tspan></text>
<path stroke-linejoin="miter" d="m407.56,647.44-5.443-5.444" stroke="#231f20" stroke-linecap="butt" stroke-miterlimit="10" stroke-dasharray="none" stroke-width="0.447" fill="none"/><path d="m405.19,643.86-2.632-1.433,1.435,2.63,0.597-0.598,0.6-0.599" fill-rule="evenodd" fill="#000"/><path stroke-linejoin="miter" d="m405.19,643.86-2.632-1.433,1.435,2.63,0.597-0.598,0.6-0.599z" stroke="#231f20" stroke-linecap="butt" stroke-miterlimit="10" stroke-dasharray="none" stroke-width="0.447" fill="none"/><path stroke-linejoin="miter" d="m274.84,758.75,127.71,0,0-65.925-127.71,0,0,65.925z" stroke-dashoffset="0" stroke="#231f20" stroke-linecap="butt" stroke-miterlimit="10" stroke-dasharray="1.4348, 1.4348" stroke-width="0.447" fill="none"/><text y="-736.1037" x="362.3414" transform="scale(1,-1)"><tspan style="writing-mode:lr-tb;" fill-rule="nonzero" font-size="8.94509983px" font-variant="normal" y="-736.1037" x="362.3414 365.32101 371.78027" font-family="Times New Roman" fill="#231f20">IHC</tspan></text>
<path stroke-linejoin="miter" d="m365.94,712.15,18.134,0,3.023-12.83m-27.202,15.396,36.269,0,0-17.962-36.269,0,0,17.962z" stroke="#231f20" stroke-linecap="butt" stroke-miterlimit="10" stroke-dasharray="none" stroke-width="0.447" fill="none"/><text y="-701.88171" x="365.9454" transform="scale(1,-1)"><tspan style="writing-mode:lr-tb;" fill-rule="nonzero" font-size="6.26160002px" font-variant="normal" y="-701.88171" x="365.9454 369.77249" font-family="Times New Roman" fill="#231f20">LP</tspan></text>
<path stroke-linejoin="miter" d="m284.17,714.71,35.987,0,0-17.962-35.987,0,0,17.962zm16.543-16.594,0,15.43m-13.218-10.469,29.982,0m-29.538-3.763,0.564,0,0.604,0.034,0.685,0,1.491,0.068,0.645,0.035,0.564,0.068,0.523,0.068,0.445,0.068,0.483,0.069,0.444,0.137,0.483,0.103,0.483,0.17,0.524,0.173,0.524,0.239,0.524,0.24,0.524,0.272,0.524,0.274,0.523,0.343,0.484,0.307,0.484,0.377,0.443,0.376,0.404,0.342,0.402,0.376,0.402,0.411,0.444,0.41,0.402,0.479,0.484,0.479,0.445,0.479,0.443,0.479,0.484,0.48,0.442,0.478,0.806,0.822,0.403,0.375,0.403,0.343,0.484,0.377,0.444,0.376,0.483,0.342,0.523,0.308,0.524,0.307,0.564,0.274,0.524,0.24,0.524,0.206,0.524,0.204,0.483,0.136,0.484,0.139,0.443,0.101,0.484,0.103,0.968,0.138,0.603,0.068,0.646,0.033,0.726,0.035,0.724,0.034,0.726,0,0.604,0.034,0.564,0" stroke="#231f20" stroke-linecap="butt" stroke-miterlimit="10" stroke-dasharray="none" stroke-width="0.447" fill="none"/><text y="-707.01477" x="287.93741" transform="scale(1,-1)"><tspan style="writing-mode:lr-tb;" fill-rule="nonzero" font-size="6.26160002px" font-variant="normal" y="-707.01477" x="287.93741 292.45953" font-family="Times New Roman" fill="#231f20">NL</tspan></text>
<path stroke-linejoin="miter" d="m287.81,700.52,1.041,0.136,1.135,0.103,1.133,0.171,1.23,0.172,2.459,0.478,1.232,0.273,1.228,0.274,1.23,0.342,1.135,0.308,1.136,0.377,1.039,0.376,0.947,0.342,0.945,0.376,0.945,0.411,1.041,0.41,0.946,0.48,1.135,0.479,2.082,0.958,1.135,0.478,1.039,0.479,0.947,0.411,0.947,0.41,0.944,0.378,0.944,0.34,1.136,0.378,1.041,0.375" stroke="#666" stroke-linecap="butt" stroke-miterlimit="10" stroke-dasharray="none" stroke-width="0.447" fill="none"/><text y="-721.68073" x="301.50641" transform="scale(1,-1)"><tspan style="writing-mode:lr-tb;" fill-rule="nonzero" font-size="6.26160002px" font-variant="normal" y="-721.68073" x="301.50641" font-family="Times New Roman" fill="#231f20">C</tspan></text>
<text y="-719.19269" x="305.94241" transform="scale(1,-1)"><tspan style="writing-mode:lr-tb;" fill-rule="nonzero" font-size="5.36709976px" font-variant="normal" y="-719.19269" x="305.94241 307.73071 311.60684" font-family="Times New Roman" fill="#231f20">IHC</tspan></text>
<path stroke-linejoin="miter" d="m171.32,705.73,10.265,0" stroke="#231f20" stroke-linecap="butt" stroke-miterlimit="10" stroke-dasharray="none" stroke-width="0.447" fill="none"/><text y="-751.4577" x="205.2334" transform="scale(1,-1)"><tspan style="writing-mode:lr-tb;" fill-rule="nonzero" font-size="7.1560998px" font-variant="normal" y="-751.4577" x="205.2334 211.98875 213.97815 217.5562 220.73351 224.31157 227.48888 231.06693" font-family="Times New Roman" fill="#231f20">Wideband</tspan></text>
<text y="-742.86969" x="205.2334" transform="scale(1,-1)"><tspan style="writing-mode:lr-tb;" fill-rule="nonzero" font-size="7.1560998px" font-variant="normal" y="-742.86969" x="205.2334 210.4001 215.76718 220.13956 222.12895 224.11835 226.50133 229.67863" font-family="Times New Roman" fill="#231f20">C2Filter</tspan></text>
<path stroke-linejoin="miter" d="m202.52,758.75,60.449,0,0-25.659-60.449,0,0,25.659z" stroke="#231f20" stroke-linecap="butt" stroke-miterlimit="10" stroke-dasharray="none" stroke-width="0.447" fill="none"/><path stroke-linejoin="miter" d="m244.52,754,0-11.829" stroke-dashoffset="0" stroke="#231f20" stroke-linecap="butt" stroke-miterlimit="10" stroke-dasharray="1.0761, 1.0761" stroke-width="0.447" fill="none"/><text y="-736.1557" x="241.3954" transform="scale(1,-1)"><tspan style="writing-mode:lr-tb;" fill-rule="nonzero" font-size="6.26160002px" font-variant="normal" y="-736.1557" x="241.3954 245.57314" font-family="Times New Roman" fill="#231f20">CF</tspan></text>
<path stroke-linejoin="miter" d="m231.6,736.7,0,0.026,0.093,0.078,0.144,0.208,0.235,0.365,0.427,0.495,0.472,0.652,0.52,0.728,0.614,0.755,0.566,0.782,0.567,0.729,0.568,0.676,0.473,0.626,0.472,0.573,0.425,0.494,0.426,0.444,0.378,0.416,0.33,0.391,0.379,0.338,0.283,0.287,0.331,0.286,0.282,0.261,0.332,0.235,0.283,0.234,0.332,0.234,0.66,0.416,0.331,0.157,0.379,0.157,0.33,0.129,0.332,0.104,0.377,0.078,0.331,0.052,0.332,0.027,0.33-0.027,0.331-0.026,0.284-0.077,0.33-0.078,0.283-0.131,0.331-0.156,0.284-0.209,0.33-0.234,0.332-0.287,0.331-0.337,0.33-0.418,0.379-0.468,0.424-0.547,0.426-0.625,0.425-0.729,0.52-0.783,0.52-0.857,0.521-0.886,0.518-0.912,0.521-0.912,0.47-0.807,0.38-0.703,0.283-0.547,0.189-0.365,0.141-0.208,0.048-0.078,0-0.026m-70.655,9.216,19.865,0" stroke="#231f20" stroke-linecap="butt" stroke-miterlimit="10" stroke-dasharray="none" stroke-width="0.447" fill="none"/><path d="m197.87,747.13,3.974-1.209-3.974-1.208,0,2.417" fill-rule="evenodd" fill="#000"/><path stroke-linejoin="miter" d="m197.87,747.13,3.974-1.209-3.974-1.208,0,2.417z" stroke="#231f20" stroke-linecap="butt" stroke-miterlimit="10" stroke-dasharray="none" stroke-width="0.447" fill="none"/><text y="-711.47467" x="205.2334" transform="scale(1,-1)"><tspan style="writing-mode:lr-tb;" fill-rule="nonzero" font-size="7.1560998px" font-variant="normal" y="-711.47467" x="205.2334 210.00795 213.58743 215.57826 217.96268 221.54214 223.53297 227.11246" font-family="Times New Roman" fill="#231f20">Chirping</tspan></text>
<text y="-702.88666" x="205.2334" transform="scale(1,-1)"><tspan style="writing-mode:lr-tb;" fill-rule="nonzero" font-size="7.1560998px" font-variant="normal" y="-702.88666" x="205.2334 210.4001 215.76718 220.13956 222.12895 224.11835 226.50133 229.67863" font-family="Times New Roman" fill="#231f20">C1Filter</tspan></text>
<path stroke-linejoin="miter" d="m202.52,718.52,60.449,0,0-25.66-60.449,0,0,25.66zm31.764-22.029,0,0.034,0.081,0.103,0.121,0.274,0.201,0.479,0.364,0.65,0.401,0.855,0.444,0.958,0.524,0.992,0.484,1.027,0.482,0.957,0.484,0.89,0.404,0.821,0.404,0.753,0.361,0.649,0.363,0.582,0.322,0.548,0.283,0.513,0.322,0.445,0.243,0.376,0.28,0.377,0.242,0.341,0.283,0.309,0.241,0.308,0.283,0.307,0.282,0.274,0.28,0.274,0.284,0.205,0.323,0.206,0.281,0.171,0.282,0.137,0.323,0.103,0.283,0.068,0.281,0.033,0.282-0.033,0.282-0.035,0.241-0.102,0.284-0.102,0.24-0.172,0.282-0.206,0.242-0.273,0.284-0.309,0.281-0.375,0.283-0.445,0.281-0.548,0.323-0.614,0.362-0.72,0.364-0.821,0.361-0.958,0.444-1.027,0.442-1.129,0.446-1.162,0.442-1.198,0.444-1.197,0.401-1.06,0.323-0.924,0.243-0.719,0.161-0.479,0.12-0.274,0.041-0.103,0-0.034" stroke="#231f20" stroke-linecap="butt" stroke-miterlimit="10" stroke-dasharray="none" stroke-width="0.447" fill="none"/><path stroke-linejoin="miter" d="m244.52,713.76,0-11.829" stroke-dashoffset="0" stroke="#231f20" stroke-linecap="butt" stroke-miterlimit="10" stroke-dasharray="1.0761, 1.0761" stroke-width="0.447" fill="none"/><text y="-695.92072" x="241.3954" transform="scale(1,-1)"><tspan style="writing-mode:lr-tb;" fill-rule="nonzero" font-size="6.26160002px" font-variant="normal" y="-695.92072" x="241.3954 245.57314" font-family="Times New Roman" fill="#231f20">CF</tspan></text>
<path stroke-linejoin="miter" d="m231.6,696.51,0,0.026,0.093,0.079,0.144,0.208,0.235,0.364,0.427,0.495,0.472,0.652,0.52,0.728,0.614,0.755,0.566,0.782,0.567,0.729,0.568,0.677,0.473,0.625,0.472,0.573,0.425,0.494,0.426,0.444,0.378,0.416,0.33,0.391,0.379,0.338,0.283,0.287,0.331,0.286,0.282,0.261,0.332,0.235,0.283,0.234,0.332,0.234,0.33,0.208,0.33,0.209,0.331,0.156,0.379,0.157,0.33,0.13,0.332,0.103,0.377,0.078,0.331,0.053,0.332,0.026,0.661-0.052,0.284-0.078,0.33-0.078,0.283-0.131,0.331-0.156,0.284-0.208,0.33-0.234,0.332-0.288,0.331-0.337,0.33-0.418,0.379-0.468,0.424-0.547,0.426-0.625,0.425-0.729,0.52-0.782,0.52-0.858,0.521-0.886,0.518-0.912,0.521-0.912,0.47-0.807,0.38-0.702,0.283-0.548,0.189-0.364,0.141-0.208,0.048-0.079,0-0.026" stroke="#666" stroke-linecap="butt" stroke-miterlimit="10" stroke-dasharray="none" stroke-width="0.447" fill="none"/><path stroke-linejoin="miter" d="m181.55,705.73,20.527,0" stroke="#231f20" stroke-linecap="butt" stroke-miterlimit="10" stroke-dasharray="none" stroke-width="0.447" fill="none"/><path d="m197.73,706.94,4.106-1.209-4.106-1.209,0,2.418" fill-rule="evenodd" fill="#000"/><path stroke-linejoin="miter" d="m197.73,706.94,4.106-1.209-4.106-1.209,0,2.418z" stroke="#231f20" stroke-linecap="butt" stroke-miterlimit="10" stroke-dasharray="none" stroke-width="0.447" fill="none"/><text font-size="7.1560998px" fill-rule="nonzero" transform="scale(1,-1)" font-variant="normal" y="-648.22382" x="205.2334" font-family="Times New Roman" fill="#231f20"><tspan style="writing-mode:lr-tb;" rotate="0 0 0 0 0 0 0 0" y="-648.22382" x="205.2334">Control</tspan><tspan style="writing-mode:lr-tb;" rotate="0 0 0 0 0 0 0 0 0 0 0 0" y="-639.27869" x="205.2334">Path</tspan><tspan style="writing-mode:lr-tb;" rotate="0 0 0 0 0 0 0 0 0 0 0 0 0 0 0 0 0 0" y="-630.33356" x="205.2334">Filter</tspan></text>
<path stroke-linejoin="miter" d="m202.52,655,60.448,0,0-25.659-60.448,0,0,25.659z" stroke="#231f20" stroke-linecap="butt" stroke-miterlimit="10" stroke-dasharray="none" stroke-width="0.447" fill="none"/><text y="-631.3717" x="241.3954" transform="scale(1,-1)"><tspan style="writing-mode:lr-tb;" fill-rule="nonzero" font-size="6.26160002px" font-variant="normal" y="-631.3717" x="241.3954 245.57314" font-family="Times New Roman" fill="#231f20">CF</tspan></text>
<path stroke-linejoin="miter" d="m232.39,636.25,0,0.035,0.127,0.103,0.192,0.273,0.315,0.478,0.571,0.65,0.634,0.856,0.698,0.959,0.824,0.992,0.761,1.026,0.761,0.958,0.763,0.89,0.633,0.82,0.634,0.753,0.571,0.649,0.57,0.583,0.508,0.547,0.444,0.513,0.507,0.445,0.381,0.376,0.443,0.377,0.38,0.341,0.444,0.309,0.382,0.308,0.445,0.307,0.442,0.275,0.443,0.273,0.445,0.205,0.508,0.206,0.444,0.171,0.443,0.136,0.508,0.103,0.444,0.069,0.444,0.034,0.443-0.034,0.444-0.035,0.381-0.103,0.444-0.101,0.38-0.173,0.444-0.205,0.381-0.273,0.443-0.308,0.446-0.377,0.443-0.443,0.443-0.549,0.508-0.615,0.57-0.719,0.572-0.821,0.57-0.957,0.698-1.028,0.697-1.128,0.699-1.164,0.696-1.197,0.698-1.198,0.633-1.059,0.509-0.925,0.38-0.719,0.255-0.478,0.189-0.273,0.064-0.103,0-0.035" stroke="#231f20" stroke-linecap="butt" stroke-miterlimit="10" stroke-dasharray="none" stroke-width="0.447" fill="none"/><path stroke-linejoin="miter" d="m244.51,651.14,0-13.285" stroke-dashoffset="0" stroke="#231f20" stroke-linecap="butt" stroke-miterlimit="10" stroke-dasharray="1.0761, 1.0761" stroke-width="0.447" fill="none"/><path stroke-linejoin="miter" d="m232.39,639.37,0,0.018,0.128,0.054,0.191,0.142,0.315,0.249,0.572,0.34,0.634,0.447,0.698,0.501,0.824,0.517,0.761,0.537,0.76,0.499,0.763,0.465,0.634,0.428,0.634,0.394,0.57,0.339,0.57,0.303,0.509,0.287,0.443,0.267,0.507,0.232,0.381,0.198,0.444,0.196,0.38,0.179,0.444,0.161,0.382,0.16,0.444,0.161,0.443,0.143,0.443,0.142,0.444,0.107,0.508,0.109,0.444,0.088,0.444,0.072,0.508,0.053,0.443,0.036,0.444,0.017,0.443-0.017,0.444-0.018,0.381-0.053,0.445-0.053,0.38-0.09,0.443-0.108,0.381-0.143,0.444-0.16,0.445-0.197,0.443-0.231,0.443-0.287,0.508-0.322,0.571-0.375,0.571-0.428,0.571-0.5,0.697-0.536,0.697-0.589,0.7-0.608,1.393-1.251,0.634-0.554,0.508-0.482,0.381-0.376,0.255-0.249,0.188-0.142,0.064-0.054,0-0.018" stroke="#666" stroke-linecap="butt" stroke-miterlimit="10" stroke-dasharray="none" stroke-width="0.447" fill="none"/><path stroke-linejoin="miter" d="m181.91,642.18,20.163,0" stroke="#231f20" stroke-linecap="butt" stroke-miterlimit="10" stroke-dasharray="none" stroke-width="0.447" fill="none"/><path d="m197.81,643.38,4.033-1.208-4.033-1.21,0,2.418" fill-rule="evenodd" fill="#000"/><path stroke-linejoin="miter" d="m197.81,643.38,4.033-1.208-4.033-1.21,0,2.418zm-15.811-1.109,0,103.87m81.176-40.418,20.528,0" stroke="#231f20" stroke-linecap="butt" stroke-miterlimit="10" stroke-dasharray="none" stroke-width="0.447" fill="none"/><path d="m279.36,706.94,4.106-1.209-4.106-1.209,0,2.418" fill-rule="evenodd" fill="#000"/><path stroke-linejoin="miter" d="m279.36,706.94,4.106-1.209-4.106-1.209,0,2.418zm-16.182,38.983,20.528,0" stroke="#231f20" stroke-linecap="butt" stroke-miterlimit="10" stroke-dasharray="none" stroke-width="0.447" fill="none"/><path d="m279.36,747.13,4.106-1.209-4.106-1.208,0,2.417" fill-rule="evenodd" fill="#000"/><path stroke-linejoin="miter" d="m279.36,747.13,4.106-1.209-4.106-1.208,0,2.417zm-16.182-104.95,20.528,0" stroke="#231f20" stroke-linecap="butt" stroke-miterlimit="10" stroke-dasharray="none" stroke-width="0.447" fill="none"/><path d="m279.36,643.38,4.106-1.208-4.106-1.21,0,2.418" fill-rule="evenodd" fill="#000"/><path stroke-linejoin="miter" d="m279.36,643.38,4.106-1.208-4.106-1.21,0,2.418zm4.813,111.47,35.987,0,0-17.962-35.987,0,0,17.962zm16.543-16.594,0,15.431m-13.222-7.786,29.981,0" stroke="#231f20" stroke-linecap="butt" stroke-miterlimit="10" stroke-dasharray="none" stroke-width="0.447" fill="none"/><text y="-748.4967" x="305.26831" transform="scale(1,-1)"><tspan style="writing-mode:lr-tb;" fill-rule="nonzero" font-size="6.26160002px" font-variant="normal" y="-748.4967" x="305.26831 307.35468 311.8768" font-family="Times New Roman" fill="#231f20">INV</tspan></text>
<path stroke-linejoin="miter" d="m349.03,705.77c0-4.94-4.004-8.945-8.945-8.945-4.94,0-8.945,4.005-8.945,8.945s4.005,8.945,8.945,8.945c4.941,0,8.945-4.005,8.945-8.945z" stroke="#231f20" stroke-linecap="butt" stroke-miterlimit="10" stroke-dasharray="none" stroke-width="0.447" fill="none"/><text y="-701.31671" x="336.10739" transform="scale(1,-1)"><tspan style="writing-mode:lr-tb;" fill-rule="nonzero" font-size="12.52320004000000075px" font-style="normal" font-variant="normal" y="-701.31671" x="336.10739" font-family="STIXGeneral" fill="#231f20">Σ</tspan></text>
<path stroke-linejoin="miter" d="m320.4,705.73,10.263,0" stroke="#231f20" stroke-linecap="butt" stroke-miterlimit="10" stroke-dasharray="none" stroke-width="0.447" fill="none"/><path d="m326.32,706.94,4.106-1.209-4.106-1.209,0,2.418" fill-rule="evenodd" fill="#000"/><path stroke-linejoin="miter" d="m326.32,706.94,4.106-1.209-4.106-1.209,0,2.418zm13.766,38.983,0-30.703" stroke="#231f20" stroke-linecap="butt" stroke-miterlimit="10" stroke-dasharray="none" stroke-width="0.447" fill="none"/><path d="m341.29,719.56-1.208-4.105-1.21,4.105,2.418,0" fill-rule="evenodd" fill="#000"/><path stroke-linejoin="miter" d="m341.29,719.56-1.208-4.105-1.21,4.105,2.418,0zm-20.871,26.358,19.886,0m-31.427-28.958,3.255-6.976" stroke="#231f20" stroke-linecap="butt" stroke-miterlimit="10" stroke-dasharray="none" stroke-width="0.447" fill="none"/><path d="m311.42,713.51,0.447-2.963-1.981,2.248,0.767,0.356,0.767,0.359" fill-rule="evenodd" fill="#000"/><path stroke-linejoin="miter" d="m311.42,713.51,0.447-2.963-1.981,2.248,0.767,0.356,0.767,0.359zm37.672-7.779,10.264,0" stroke="#231f20" stroke-linecap="butt" stroke-miterlimit="10" stroke-dasharray="none" stroke-width="0.447" fill="none"/><path d="m355.02,706.94,4.105-1.209-4.105-1.209,0,2.418" fill-rule="evenodd" fill="#000"/><path stroke-linejoin="miter" d="m355.02,706.94,4.105-1.209-4.105-1.209,0,2.418zm-34.617-64.761,10.263,0" stroke="#231f20" stroke-linecap="butt" stroke-miterlimit="10" stroke-dasharray="none" stroke-width="0.447" fill="none"/><path d="m326.32,643.38,4.106-1.208-4.106-1.21,0,2.418" fill-rule="evenodd" fill="#000"/><path stroke-linejoin="miter" d="m326.32,643.38,4.106-1.208-4.106-1.21,0,2.418zm41.193-1.208,10.263,0" stroke="#231f20" stroke-linecap="butt" stroke-miterlimit="10" stroke-dasharray="none" stroke-width="0.447" fill="none"/><path d="m373.43,643.38,4.105-1.208-4.105-1.21,0,2.418" fill-rule="evenodd" fill="#000"/><path stroke-linejoin="miter" d="m373.43,643.38,4.105-1.208-4.105-1.21,0,2.418zm41.485,71.33,36.269,0,0-17.962-36.269,0,0,17.962z" stroke="#231f20" stroke-linecap="butt" stroke-miterlimit="10" stroke-dasharray="none" stroke-width="0.447" fill="none"/><text font-size="7.1560998px" fill-rule="nonzero" transform="scale(1,-1)" font-variant="normal" y="-707.61768" x="421.84241" font-family="Times New Roman" fill="#231f20"><tspan style="writing-mode:lr-tb;" y="-707.61768" x="421.84241 425.82263 429.4021 432.9816 436.16031 439.73981 442.52496">Synapse</tspan><tspan style="writing-mode:lr-tb;" y="-699.0304" x="421.84241 428.2056 431.7851 435.36456 438.5433">Model</tspan></text>
<path stroke-linejoin="miter" d="m396.31,705.73,14.474,0" stroke="#231f20" stroke-linecap="butt" stroke-miterlimit="10" stroke-dasharray="none" stroke-width="0.37599999" fill="none"/><path d="m410.25,706.94,4.105-1.209-4.105-1.209,0,2.418" fill-rule="evenodd" fill="#000"/><path stroke-linejoin="miter" d="m410.25,706.94,4.105-1.209-4.105-1.209,0,2.418zm51.846,7.777,36.268,0,0-17.962-36.268,0,0,17.962z" stroke="#231f20" stroke-linecap="butt" stroke-miterlimit="10" stroke-dasharray="none" stroke-width="0.447" fill="none"/><text font-size="7.1560998px" fill-rule="nonzero" transform="scale(1,-1)" font-variant="normal" y="-707.61768" x="465.89731" font-family="Times New Roman" fill="#231f20"><tspan style="writing-mode:lr-tb;" y="-707.61768" x="465.89731 469.87753 473.457 475.44785 479.02731">Spike</tspan><tspan style="writing-mode:lr-tb;" y="-699.0304" x="465.89731 471.064 474.2413 477.81937 480.99667 483.37964 486.55695 488.54636 492.12442">Generator</tspan></text>
<path stroke-linejoin="miter" d="m498.5,705.73,10.963,0" stroke="#231f20" stroke-linecap="butt" stroke-miterlimit="10" stroke-dasharray="none" stroke-width="0.32699999" fill="none"/><path d="m509.54,706.94,4.105-1.209-4.105-1.209,0,2.418" fill-rule="evenodd" fill="#000"/><path stroke-linejoin="miter" d="m509.54,706.94,4.105-1.209-4.105-1.209,0,2.418zm-58.126-1.209,10.265,0" stroke="#231f20" stroke-linecap="butt" stroke-miterlimit="10" stroke-dasharray="none" stroke-width="0.447" fill="none"/><path d="m457.34,706.94,4.105-1.209-4.105-1.209,0,2.418" fill-rule="evenodd" fill="#000"/><path stroke-linejoin="miter" d="m457.34,706.94,4.105-1.209-4.105-1.209,0,2.418zm-57.92-53.466,0,29.654m-166.62-0.299,0,9.67" stroke="#231f20" stroke-linecap="butt" stroke-miterlimit="10" stroke-dasharray="none" stroke-width="0.447" fill="none"/><path d="m231.59,687.76,1.209,4.472,1.21-4.472-2.419,0" fill-rule="evenodd" fill="#000"/><path stroke-linejoin="miter" d="m231.59,687.76,1.209,4.472,1.21-4.472-2.419,0zm1.209-4.82,166.84,0m-166.84-19.796,0-7.819" stroke="#231f20" stroke-linecap="butt" stroke-miterlimit="10" stroke-dasharray="none" stroke-width="0.447" fill="none"/><path d="m231.59,659.67,1.209-4.106,1.21,4.106-2.419,0" fill-rule="evenodd" fill="#000"/><path stroke-linejoin="miter" d="m231.59,659.67,1.209-4.106,1.21,4.106-2.419,0zm1.209,23.407,0-8.841" stroke="#231f20" stroke-linecap="butt" stroke-miterlimit="10" stroke-dasharray="none" stroke-width="0.447" fill="none"/><path d="m231.59,678.46,1.209-4.106,1.21,4.106-2.419,0" fill-rule="evenodd" fill="#000"/><path stroke-linejoin="miter" d="m231.59,678.46,1.209-4.106,1.21,4.106-2.419,0z" stroke="#231f20" stroke-linecap="butt" stroke-miterlimit="10" stroke-dasharray="none" stroke-width="0.447" fill="none"/><path stroke-linejoin="miter" d="m300.73,745.96c-4.849,0-8.775,2.098-8.775,4.691m17.363-9.382c0,2.593-3.925,4.691-8.774,4.691m-8.586,4.617c0,1.139-1.703,2.061-3.807,2.061m21.168-11.264c0-1.14,1.701-2.061,3.806-2.061" stroke="#231f20" stroke-linecap="butt" stroke-miterlimit="10" stroke-dasharray="none" stroke-width="0.38699999" fill="none"/><text font-size="7.1560998px" fill-rule="nonzero" transform="scale(1,-1)" font-variant="normal" y="-543.58221" x="247.9744" font-family="Times New Roman" fill="#231f20"><tspan style="writing-mode:lr-tb;" y="-543.58221" x="247.9744 250.45041 255.5248">IHC</tspan><tspan style="writing-mode:lr-tb;" y="-536.04327" x="248.86819 253.64275 256.71771 259.50287 262.98074 266.45862 269.93646 272.72162">Response</tspan><tspan style="writing-mode:lr-tb;" y="-583.72937" x="308.32825 312.40863 314.79376 317.87088 321.05035 323.12991 325.02628 328.50415 331.98199 335.05911">Fractional</tspan><tspan style="writing-mode:lr-tb;" y="-576.1861" x="310.11725 315.37772 318.4541 321.93198 324.71713 327.50156 329.39651 332.4729">Gaussian</tspan><tspan style="writing-mode:lr-tb;" y="-567.59882" x="313.69531 318.76685 322.24969 324.14392 326.92908">Noise</tspan><tspan style="writing-mode:lr-tb;" y="-577.17004" x="382.30942 386.28964 388.1853 391.66318">Slow</tspan><tspan style="writing-mode:lr-tb;" y="-569.62683" x="374.25882 378.23904 381.71689 386.78772 389.86914 394.12558 398.40207 401.48349">PowerLaw</tspan></text>
<text y="-561.08502" x="370.67831" transform="scale(1,-1)"><tspan style="writing-mode:lr-tb;" fill-rule="nonzero" font-size="5.36709976000000033px" font-style="italic" font-variant="normal" y="-561.08502" x="370.67831" font-family="STIXGeneral" fill="#231f20">α</tspan></text>
<text y="-561.08502" x="374.03113" transform="scale(1,-1)"><tspan style="writing-mode:lr-tb;" fill-rule="nonzero" font-size="5.36709976px" font-variant="normal" y="-561.08502" x="374.03113 376.99271 379.75781" font-family="Times New Roman" fill="#231f20">=5e</tspan></text>
<text y="-562.64508" x="382.2644" transform="scale(1,-1)"><tspan style="writing-mode:lr-tb;" fill-rule="nonzero" font-size="4.47259998000000003px" font-variant="normal" y="-562.64508" x="382.2644" font-family="Times New Roman" fill="#231f20">−</tspan></text>
<text y="-562.64508" x="385.35229" transform="scale(1,-1)"><tspan style="writing-mode:lr-tb;" fill-rule="nonzero" font-size="4.47259998px" font-variant="normal" y="-562.64508" x="385.35229" font-family="Times New Roman" fill="#231f20">6</tspan></text>
<text y="-561.08502" x="390.2883" transform="scale(1,-1)"><tspan style="writing-mode:lr-tb;" font-family="STIXGeneral" fill-rule="nonzero" font-size="5.36709976000000033px" font-style="italic" font-stretch="normal" font-variant="normal" y="-561.08502" x="390.2883" font-weight="normal" fill="#231f20">β</tspan></text>
<text y="-561.08502" x="393.41248" transform="scale(1,-1)"><tspan style="writing-mode:lr-tb;" fill-rule="nonzero" font-size="5.36709976px" font-variant="normal" y="-561.08502" x="393.41248 396.37405 399.13812" font-family="Times New Roman" fill="#231f20">=5e</tspan></text>
<text y="-562.64508" x="401.8804" transform="scale(1,-1)"><tspan style="writing-mode:lr-tb;" fill-rule="nonzero" font-size="4.47259998000000003px" font-variant="normal" y="-562.64508" x="401.8804" font-family="Times New Roman" fill="#231f20">−</tspan></text>
<text y="-562.64508" x="404.96829" transform="scale(1,-1)"><tspan style="writing-mode:lr-tb;" fill-rule="nonzero" font-size="4.47259998px" font-variant="normal" y="-562.64508" x="404.96829" font-family="Times New Roman" fill="#231f20">4</tspan></text>
<text y="-561.08502" x="407.93829" transform="scale(1,-1)"><tspan style="writing-mode:lr-tb;" fill-rule="nonzero" font-size="5.36709976px" font-variant="normal" y="-561.08502" x="407.93829" font-family="Times New Roman" fill="#231f20">s</tspan></text>
<path stroke-linejoin="miter" d="m368.4,584.3,42.695,0,0-25.266-42.695,0,0,25.266z" stroke="#231f20" stroke-linecap="butt" stroke-miterlimit="10" stroke-dasharray="none" stroke-width="0.447" fill="none"/><text font-size="7.1560998px" fill-rule="nonzero" transform="scale(1,-1)" font-variant="normal" y="-517.99731" x="381.8624" font-family="Times New Roman" fill="#231f20"><tspan style="writing-mode:lr-tb;" y="-517.99731" x="381.8624 385.94208 389.01849 391.80365">Fast</tspan><tspan style="writing-mode:lr-tb;" y="-510.45404" x="374.7063 378.68652 382.1644 387.2352 390.31662 394.57306 398.84955 401.93097">PowerLaw</tspan></text>
<text y="-501.9122" x="370.23041" transform="scale(1,-1)"><tspan style="writing-mode:lr-tb;" fill-rule="nonzero" font-size="5.36709976000000033px" font-style="italic" font-variant="normal" y="-501.9122" x="370.23041" font-family="STIXGeneral" fill="#231f20">α</tspan></text>
<text y="-501.9122" x="373.58429" transform="scale(1,-1)"><tspan style="writing-mode:lr-tb;" fill-rule="nonzero" font-size="5.36709976px" font-variant="normal" y="-501.9122" x="373.58429 376.54587 379.311" font-family="Times New Roman" fill="#231f20">=1e</tspan></text>
<text y="-503.46951" x="381.81741" transform="scale(1,-1)"><tspan style="writing-mode:lr-tb;" fill-rule="nonzero" font-size="4.47259998000000003px" font-variant="normal" y="-503.46951" x="381.81741" font-family="Times New Roman" fill="#231f20">−</tspan></text>
<text y="-503.46951" x="384.01031" transform="scale(1,-1)"><tspan style="writing-mode:lr-tb;" fill-rule="nonzero" font-size="4.47259998000000003px" font-variant="normal" y="-503.46951" x="384.01031" font-family="Times New Roman" fill="#231f20">2</tspan></text>
<text y="-501.9122" x="390.73541" transform="scale(1,-1)"><tspan style="writing-mode:lr-tb;" fill-rule="nonzero" font-size="5.36709976000000033px" font-style="italic" font-variant="normal" y="-501.9122" x="390.73541" font-family="STIXGeneral" fill="#231f20">β</tspan></text>
<text y="-501.9122" x="393.85959" transform="scale(1,-1)"><tspan style="writing-mode:lr-tb;" fill-rule="nonzero" font-size="5.36709976px" font-variant="normal" y="-501.9122" x="393.85959 396.82117 399.58521" font-family="Times New Roman" fill="#231f20">=1e</tspan></text>
<text y="-503.46951" x="402.32739" transform="scale(1,-1)"><tspan style="writing-mode:lr-tb;" fill-rule="nonzero" font-size="4.47259998000000003px" font-variant="normal" y="-503.46951" x="402.32739" font-family="Times New Roman" fill="#231f20">−</tspan></text>
<text y="-503.46951" x="404.52121" transform="scale(1,-1)"><tspan style="writing-mode:lr-tb;" fill-rule="nonzero" font-size="4.47259998000000003px" font-variant="normal" y="-503.46951" x="404.52121" font-family="Times New Roman" fill="#231f20">1</tspan></text>
<text y="-501.9122" x="407.4913" transform="scale(1,-1)"><tspan style="writing-mode:lr-tb;" fill-rule="nonzero" font-size="5.36709976px" font-variant="normal" y="-501.9122" x="407.4913" font-family="Times New Roman" fill="#231f20">s</tspan></text>
<path stroke-linejoin="miter" d="m368.4,525.26,42.695,0,0-25.266-42.695,0,0,25.266z" stroke="#231f20" stroke-linecap="butt" stroke-miterlimit="10" stroke-dasharray="none" stroke-width="0.447" fill="none"/><text font-size="7.1560998px" fill-rule="nonzero" transform="scale(1,-1)" font-variant="normal" y="-551.68292" x="290.4574" font-family="Times New Roman" fill="#231f20"><tspan style="writing-mode:lr-tb;" y="-551.68292" x="290.4574 294.83121 298.41068 301.88568 305.36356 308.84143 311.91855 315.39642 317.47598 319.36517 322.44229">Exponential</tspan><tspan style="writing-mode:lr-tb;" y="-544.14679" x="292.24643 297.41455 300.89313 303.96884 307.44525 309.52841 312.6041 314.68582 316.57358 320.05002">Adaptation</tspan></text>
<text y="-536.60309" x="287.77328" transform="scale(1,-1)"><tspan style="writing-mode:lr-tb;" fill-rule="nonzero" font-size="6.26160002000000038px" font-style="italic" font-variant="normal" y="-536.60309" x="287.77328" font-family="STIXGeneral" fill="#231f20">τ</tspan></text>
<text y="-535.57178" x="290.3754" transform="scale(1,-1)"><tspan style="writing-mode:lr-tb;" fill-rule="nonzero" font-size="4.47259998px" font-variant="normal" y="-535.57178" x="290.3754 291.97211 293.7066 296.01086 297.22205" font-family="Times New Roman" fill="#231f20">rapid</tspan></text>
<text y="-536.60309" x="301.00439" transform="scale(1,-1)"><tspan style="writing-mode:lr-tb;" fill-rule="nonzero" font-size="6.26160002px" font-variant="normal" y="-536.60309" x="301.00439" font-family="Times New Roman" fill="#231f20">=</tspan></text>
<text y="-536.61298" x="307.5014" transform="scale(1,-1)"><tspan style="writing-mode:lr-tb;" fill-rule="nonzero" font-size="5.46000004px" font-variant="normal" y="-536.61298" x="307.5014" font-family="Times New Roman" fill="#231f20">2</tspan></text>
<text y="-536.61298" x="311.66129" transform="scale(1,-1)"><tspan style="writing-mode:lr-tb;" fill-rule="nonzero" font-size="5.36709976px" font-variant="normal" y="-536.61298" x="311.66129 315.71237" font-family="Times New Roman" fill="#231f20">ms</tspan></text>
<text y="-529.06677" x="287.77328" transform="scale(1,-1)"><tspan style="writing-mode:lr-tb;" fill-rule="nonzero" font-size="6.26160002000000038px" font-style="italic" font-variant="normal" y="-529.06677" x="287.77328" font-family="STIXGeneral" fill="#231f20">τ</tspan></text>
<text y="-528.03021" x="290.3754" transform="scale(1,-1)"><tspan style="writing-mode:lr-tb;" fill-rule="nonzero" font-size="4.47259998px" font-variant="normal" y="-528.03021" x="290.3754 292.11615 294.41953 296.7229 298.31964 300.42981 301.70361 303.75653 305.35324" font-family="Times New Roman" fill="#231f20">shortterm</tspan></text>
<text y="-529.07233" x="309.3204" transform="scale(1,-1)"><tspan style="writing-mode:lr-tb;" fill-rule="nonzero" font-size="6.26160002px" font-variant="normal" y="-529.07233" x="309.3204" font-family="Times New Roman" fill="#231f20">=</tspan></text>
<text y="-529.07233" x="314.38141" transform="scale(1,-1)"><tspan style="writing-mode:lr-tb;" fill-rule="nonzero" font-size="5.36709976px" font-variant="normal" y="-529.07233" x="314.38141 317.18839 321.42572 325.47681" font-family="Times New Roman" fill="#231f20">60ms</tspan></text>
<path stroke-linejoin="miter" d="m284.62,559.4,44.253,0,0-32.371-44.253,0,0,32.371zm-20.548-15.177,20.527,0" stroke="#231f20" stroke-linecap="butt" stroke-miterlimit="10" stroke-dasharray="none" stroke-width="0.447" fill="none"/><path d="m280.25,545.43,4.106-1.209-4.106-1.209,0,2.418" fill-rule="evenodd" fill="#000"/><path stroke-linejoin="miter" d="m280.25,545.43,4.106-1.209-4.106-1.209,0,2.418zm166.08-3.147,20.528,0" stroke="#231f20" stroke-linecap="butt" stroke-miterlimit="10" stroke-dasharray="none" stroke-width="0.447" fill="none"/><path d="m462.51,543.5,4.106-1.208-4.106-1.209,0,2.417" fill-rule="evenodd" fill="#000"/><path stroke-linejoin="miter" d="m462.51,543.5,4.106-1.208-4.106-1.209,0,2.417z" stroke="#231f20" stroke-linecap="butt" stroke-miterlimit="10" stroke-dasharray="none" stroke-width="0.447" fill="none"/><text transform="scale(1,-1)" y="-554.91559" x="350.18839" font-family="STIXGeneral"><tspan style="writing-mode:lr-tb;" fill-rule="nonzero" font-size="8.94509983000000020px" font-variant="normal" y="-554.91559" x="350.18839" font-family="STIXGeneral" fill="#231f20">Σ</tspan></text>
<path stroke-linejoin="miter" d="m358.2,557.59c0-3.085-2.5-5.587-5.587-5.587s-5.588,2.502-5.588,5.587,2.501,5.587,5.588,5.587,5.587-2.502,5.587-5.587z" stroke="#231f20" stroke-linecap="butt" stroke-miterlimit="10" stroke-dasharray="none" stroke-width="0.447" fill="none"/><text y="-539.98993" x="438.22141" transform="scale(1,-1)"><tspan style="writing-mode:lr-tb;" fill-rule="nonzero" font-size="8.94509983000000020px" font-variant="normal" y="-539.98993" x="438.22141" font-family="STIXGeneral" fill="#231f20">Σ</tspan></text>
<path stroke-linejoin="miter" d="m446.54,542.68c0-3.085-2.501-5.587-5.587-5.587s-5.587,2.502-5.587,5.587,2.501,5.587,5.587,5.587,5.587-2.502,5.587-5.587zm-35.482-30.413,26.057,26.056" stroke="#231f20" stroke-linecap="butt" stroke-miterlimit="10" stroke-dasharray="none" stroke-width="0.447" fill="none"/><path d="m432.86,535.79,4.063,2.353-2.353-4.062-0.855,0.853-0.855,0.856" fill-rule="evenodd" fill="#000"/><path stroke-linejoin="miter" d="m432.86,535.79,4.063,2.353-2.353-4.062-0.855,0.853-0.855,0.856zm-94.527,6.248,10.595,10.595" stroke="#231f20" stroke-linecap="butt" stroke-miterlimit="10" stroke-dasharray="none" stroke-width="0.447" fill="none"/><path d="m345.83,551.24,3.397,1.687-1.686-3.397-1.711,1.71" fill-rule="evenodd" fill="#000"/><path stroke-linejoin="miter" d="m345.83,551.24,3.397,1.687-1.686-3.397-1.711,1.71z" stroke="#231f20" stroke-linecap="butt" stroke-miterlimit="10" stroke-dasharray="none" stroke-width="0.49000001" fill="none"/><path d="m328.76,542.39,10.105,0" fill-rule="nonzero" fill="#000"/><path stroke-linejoin="miter" d="m328.76,542.39,10.105,0" stroke="#231f20" stroke-linecap="butt" stroke-miterlimit="10" stroke-dasharray="none" stroke-width="0.46000001" fill="none"/><path stroke-linejoin="miter" d="M335.98,574.65,348.7,561.93" stroke="#231f20" stroke-linecap="butt" stroke-miterlimit="10" stroke-dasharray="none" stroke-width="0.435" fill="none"/><path d="m346.86,565.48,1.688-3.398-3.398,1.688,0.854,0.855,0.856,0.855" fill-rule="evenodd" fill="#000"/><path stroke-linejoin="miter" d="m346.86,565.48,1.688-3.398-3.398,1.688,0.854,0.855,0.856,0.855z" stroke="#231f20" stroke-linecap="butt" stroke-miterlimit="10" stroke-dasharray="none" stroke-width="0.435" fill="none"/><path stroke-linejoin="miter" d="M338.51,542,368.08,512.43" stroke="#231f20" stroke-linecap="butt" stroke-miterlimit="10" stroke-dasharray="none" stroke-width="0.447" fill="none"/><path d="m365.54,516.68,2.351-4.064-4.062,2.353,1.711,1.711" fill-rule="evenodd" fill="#000"/><path stroke-linejoin="miter" d="m365.54,516.68,2.351-4.064-4.062,2.353,1.711,1.711z" stroke="#231f20" stroke-linecap="butt" stroke-miterlimit="10" stroke-dasharray="none" stroke-width="0.447" fill="none"/><path stroke-linejoin="miter" d="m357.36,560.46,10.957,10.958" stroke="#231f20" stroke-linecap="butt" stroke-miterlimit="10" stroke-dasharray="none" stroke-width="0.45500001" fill="none"/><path d="m365.14,569.95,3.048,1.338-1.338-3.048-0.855,0.854-0.855,0.856" fill-rule="evenodd" fill="#000"/><path stroke-linejoin="miter" d="m365.14,569.95,3.048,1.338-1.338-3.048-0.855,0.854-0.855,0.856z" stroke="#231f20" stroke-linecap="butt" stroke-miterlimit="10" stroke-dasharray="none" stroke-width="0.45500001" fill="none"/><path stroke-linejoin="miter" d="m411.26,572.11,25.252-25.254" stroke="#231f20" stroke-linecap="butt" stroke-miterlimit="10" stroke-dasharray="none" stroke-width="0.447" fill="none"/><path d="m433.98,551.11,2.352-4.062-4.062,2.352,0.854,0.855,0.856,0.855" fill-rule="evenodd" fill="#000"/><path stroke-linejoin="miter" d="m433.98,551.11,2.352-4.062-4.062,2.352,0.854,0.855,0.856,0.855z" stroke="#231f20" stroke-linecap="butt" stroke-miterlimit="10" stroke-dasharray="none" stroke-width="0.447" fill="none"/><text font-size="7.1560998px" fill-rule="nonzero" transform="scale(1,-1)" font-variant="normal" y="-544.81653" x="467.98441" font-family="Times New Roman" fill="#231f20"><tspan style="writing-mode:lr-tb;" y="-544.81653" x="467.98441 471.96463 475.5441 477.53494 481.11441">Spike</tspan><tspan style="writing-mode:lr-tb;" y="-536.22919" x="467.98441 473.15109 476.3284 479.90646 483.08377 485.46677 488.64407 490.63345 494.21152">Generator</tspan></text>
<path d="m407.78,705.41,0-27.357" fill-rule="nonzero" fill="#000"/><path stroke-linejoin="round" d="m407.78,705.41,0-5.303m0-5.724,0-5.303m0-5.725,0-5.302" stroke="#231f20" stroke-linecap="round" stroke-miterlimit="10" stroke-dasharray="none" stroke-width="0.884" fill="none"/><path d="m407.78,678.06,30.414,0" fill-rule="nonzero" fill="#000"/><path stroke-linejoin="round" d="m407.78,678.06,5.368,0m7.156,0,5.367,0m7.156,0,5.367,0" stroke="#231f20" stroke-linecap="round" stroke-miterlimit="10" stroke-dasharray="none" stroke-width="0.89499998" fill="none"/><path d="m438.79,678.06,0-85.277" fill-rule="nonzero" fill="#000"/><path stroke-linejoin="round" d="m438.79,678.06,0-5.367m0-6.048,0-5.367m0-6.049,0-5.367m0-6.049,0-5.367m0-6.049,0-5.367m0-6.049,0-5.367m0-6.048,0-5.367m0-6.049,0-5.367" stroke="#231f20" stroke-linecap="round" stroke-miterlimit="10" stroke-dasharray="none" stroke-width="0.89499998" fill="none"/><path d="m438.19,592.78-164.59,0" fill-rule="nonzero" fill="#000"/><path stroke-linejoin="round" d="m438.19,592.78-5.367,0m-6.006,0-5.367,0m-6.006,0-5.367,0m-6.006,0-5.367,0m-6.006,0-5.367,0m-6.006,0-5.367,0m-6.007,0-5.367,0m-6.006,0-5.367,0m-6.006,0-5.367,0m-6.005,0-5.367,0m-6.006,0-5.367,0m-6.007,0-5.367,0m-6.006,0-5.367,0m-6.006,0-5.367,0m-6.006,0-5.367,0" stroke="#231f20" stroke-linecap="round" stroke-miterlimit="10" stroke-dasharray="none" stroke-width="0.89499998" fill="none"/><path d="m273.6,592.78,0.297-48.304" fill-rule="nonzero" fill="#000"/><path stroke-linejoin="round" d="m273.6,592.78,0.033-5.367m0.034-5.367,0.032-5.368m0.033-5.367,0.033-5.367m0.034-5.367,0.032-5.367m0.033-5.367,0.033-5.367" stroke="#231f20" stroke-linecap="round" stroke-miterlimit="10" stroke-dasharray="none" stroke-width="0.89499998" fill="none"/><path d="m453.99,705.49,0-162.5" fill-rule="nonzero" fill="#000"/><path stroke-linejoin="round" d="m453.99,705.49,0-5.367m0-5.857,0-5.367m0-5.857,0-5.367m0-5.857,0-5.367m0-5.856,0-5.367m0-5.857,0-5.368m0-5.857,0-5.367m0-5.857,0-5.367m0-5.857,0-5.367m0-5.857,0-5.367m0-5.858,0-5.367m0-5.856,0-5.367m0-5.856,0-5.367m0-5.858,0-5.367m0-5.857,0-5.367" stroke="#231f20" stroke-linecap="round" stroke-miterlimit="10" stroke-dasharray="none" stroke-width="0.89499998" fill="none"/></g></svg>
